ffmpeg started on 2025-06-05 at 19:50:10
Report written to "D:\Convert\FFMetrics\reports\psnr_report-6.txt"
Log level: 32
Command line:
ffmpeg -hide_banner -nostdin -i "G:\\\xc0\xed\xe8\xec\xe5\\\xce\xed\xe3\xee\xe8\xed\xe3\xe8\\!_36_\xce\xf1\xe5\xed\xfc_2024\\DreamCast\\\xcd\xe0\xef\xe0\xe4\xe5\xed\xe8\xe5 \xee\xe4\xe8\xed\xee\xf7\xea\xe8 \xed\xe0 \xe8\xed\xee\xe9 \xec\xe8\xf0\\[DC] Hitoribocchi no Isekai Kouryaku - 09_Telegram_HEVC.mkv" -i "G:\\\xc0\xed\xe8\xec\xe5\\\xce\xed\xe3\xee\xe8\xed\xe3\xe8\\!_36_\xce\xf1\xe5\xed\xfc_2024\\DreamCast\\\xcd\xe0\xef\xe0\xe4\xe5\xed\xe8\xe5 \xee\xe4\xe8\xed\xee\xf7\xea\xe8 \xed\xe0 \xe8\xed\xee\xe9 \xec\xe8\xf0\\[DC] Hitoribocchi no Isekai Kouryaku - 09_Telegram.mp4" -lavfi "[0:v]settb=AVTB,setpts=PTS-STARTPTS,format=pix_fmts=yuv420p10,fps=24000/1001,scale=1920:1080:flags=bicubic[main];[1:v]settb=AVTB,setpts=PTS-STARTPTS,format=pix_fmts=yuv420p,fps=24000/1001,scale=1920:1080:flags=bicubic[ref];[main][ref]psnr=eof_action=endall:stats_file='D\\:/Convert/FFMetrics/logs/psnr_logfile-6.txt'" -f null -
Input #0, matroska,webm, from 'G:\Аниме\Онгоинги\!_36_Осень_2024\DreamCast\Нападение одиночки на иной мир\[DC] Hitoribocchi no Isekai Kouryaku - 09_Telegram_HEVC.mkv':
  Metadata:
    COMPATIBLE_BRANDS: isomiso2avc1mp41
    MAJOR_BRAND     : isom
    MINOR_VERSION   : 512
    ENCODER         : Lavf61.7.100
  Duration: 00:23:49.08, start: -0.021000, bitrate: 1455 kb/s
  Stream #0:0: Video: hevc (Main 10), yuv420p10le(tv, bt709, progressive), 1920x1080 [SAR 1:1 DAR 16:9], 23.98 fps, 23.98 tbr, 1k tbn (default)
      Metadata:
        HANDLER_NAME    : VideoHandler
        VENDOR_ID       : [0][0][0][0]
        ENCODER         : Lavc61.19.100 libx265
        BPS             : 1256743
        DURATION        : 00:23:48.969708333
        NUMBER_OF_FRAMES: 34261
        NUMBER_OF_BYTES : 224480933
        _STATISTICS_WRITING_APP: mkvpropedit v66.0.0 ('Josie') 64-bit
        _STATISTICS_WRITING_DATE_UTC: 2025-05-31 11:18:30
        _STATISTICS_TAGS: BPS DURATION NUMBER_OF_FRAMES NUMBER_OF_BYTES
  Stream #0:1: Audio: aac (LC), 48000 Hz, stereo, fltp (default)
      Metadata:
        HANDLER_NAME    : SoundHandler
        VENDOR_ID       : [0][0][0][0]
        ENCODER         : Lavc61.19.100 aac
        BPS             : 194596
        DURATION        : 00:23:49.077000000
        NUMBER_OF_FRAMES: 66989
        NUMBER_OF_BYTES : 34761690
        _STATISTICS_WRITING_APP: mkvpropedit v66.0.0 ('Josie') 64-bit
        _STATISTICS_WRITING_DATE_UTC: 2025-05-31 11:18:30
        _STATISTICS_TAGS: BPS DURATION NUMBER_OF_FRAMES NUMBER_OF_BYTES
Input #1, mov,mp4,m4a,3gp,3g2,mj2, from 'G:\Аниме\Онгоинги\!_36_Осень_2024\DreamCast\Нападение одиночки на иной мир\[DC] Hitoribocchi no Isekai Kouryaku - 09_Telegram.mp4':
  Metadata:
    major_brand     : isom
    minor_version   : 512
    compatible_brands: isomiso2avc1mp41
    encoder         : Lavf61.1.100
  Duration: 00:23:49.03, start: 0.000000, bitrate: 3764 kb/s
  Stream #1:0[0x1](und): Video: h264 (High) (avc1 / 0x31637661), yuv420p(tv, bt709, progressive), 1920x1080 [SAR 1:1 DAR 16:9], 3616 kb/s, 23.98 fps, 23.98 tbr, 24k tbn (default)
      Metadata:
        handler_name    : VideoHandler
        vendor_id       : [0][0][0][0]
        encoder         : Lavc61.3.100 h264_qsv
  Stream #1:1[0x2](und): Audio: aac (HE-AACv2) (mp4a / 0x6134706D), 48000 Hz, stereo, fltp, 144 kb/s (default)
      Metadata:
        handler_name    : SoundHandler
        vendor_id       : [0][0][0][0]
Stream mapping:
  Stream #0:0 (hevc) -> settb:default
  Stream #1:0 (h264) -> settb:default
  psnr:default -> Stream #0:0 (wrapped_avframe)
  Stream #0:1 -> #0:1 (aac (native) -> pcm_s16le (native))
Output #0, null, to 'pipe:':
  Metadata:
    COMPATIBLE_BRANDS: isomiso2avc1mp41
    MAJOR_BRAND     : isom
    MINOR_VERSION   : 512
    encoder         : Lavf61.7.100
  Stream #0:0: Video: wrapped_avframe, yuv420p10le(tv, bt709, progressive), 1920x1080 [SAR 1:1 DAR 16:9], q=2-31, 200 kb/s, 23.98 fps, 23.98 tbn
      Metadata:
        encoder         : Lavc61.19.100 wrapped_avframe
  Stream #0:1: Audio: pcm_s16le, 48000 Hz, stereo, s16, 1536 kb/s (default)
      Metadata:
        HANDLER_NAME    : SoundHandler
        VENDOR_ID       : [0][0][0][0]
        _STATISTICS_TAGS: BPS DURATION NUMBER_OF_FRAMES NUMBER_OF_BYTES
        BPS             : 194596
        DURATION        : 00:23:49.077000000
        NUMBER_OF_FRAMES: 66989
        NUMBER_OF_BYTES : 34761690
        _STATISTICS_WRITING_APP: mkvpropedit v66.0.0 ('Josie') 64-bit
        _STATISTICS_WRITING_DATE_UTC: 2025-05-31 11:18:30
        encoder         : Lavc61.19.100 pcm_s16le
frame=  156 fps=0.0 q=-0.0 size=N/A time=00:00:06.50 bitrate=N/A speed=  13x    frame=  391 fps=381 q=-0.0 size=N/A time=00:00:16.30 bitrate=N/A speed=15.9x    frame=  656 fps=428 q=-0.0 size=N/A time=00:00:27.36 bitrate=N/A speed=17.8x    frame=  864 fps=420 q=-0.0 size=N/A time=00:00:36.03 bitrate=N/A speed=17.5x    frame= 1110 fps=433 q=-0.0 size=N/A time=00:00:46.29 bitrate=N/A speed=18.1x    frame= 1364 fps=442 q=-0.0 size=N/A time=00:00:56.89 bitrate=N/A speed=18.4x    frame= 1556 fps=433 q=-0.0 size=N/A time=00:01:04.89 bitrate=N/A speed=18.1x    frame= 1741 fps=424 q=-0.0 size=N/A time=00:01:12.61 bitrate=N/A speed=17.7x    frame= 1925 fps=415 q=-0.0 size=N/A time=00:01:20.28 bitrate=N/A speed=17.3x    frame= 2082 fps=405 q=-0.0 size=N/A time=00:01:26.83 bitrate=N/A speed=16.9x    frame= 2275 fps=401 q=-0.0 size=N/A time=00:01:34.88 bitrate=N/A speed=16.7x    frame= 2462 fps=397 q=-0.0 size=N/A time=00:01:42.68 bitrate=N/A speed=16.6x    frame= 2599 fps=388 q=-0.0 size=N/A time=00:01:48.39 bitrate=N/A speed=16.2x    frame= 2746 fps=380 q=-0.0 size=N/A time=00:01:54.53 bitrate=N/A speed=15.8x    frame= 2893 fps=374 q=-0.0 size=N/A time=00:02:00.66 bitrate=N/A speed=15.6x    frame= 3093 fps=375 q=-0.0 size=N/A time=00:02:09.00 bitrate=N/A speed=15.6x    frame= 3284 fps=374 q=-0.0 size=N/A time=00:02:16.97 bitrate=N/A speed=15.6x    frame= 3513 fps=378 q=-0.0 size=N/A time=00:02:26.52 bitrate=N/A speed=15.8x    frame= 3717 fps=379 q=-0.0 size=N/A time=00:02:35.02 bitrate=N/A speed=15.8x    frame= 3950 fps=383 q=-0.0 size=N/A time=00:02:44.74 bitrate=N/A speed=  16x    frame= 4150 fps=383 q=-0.0 size=N/A time=00:02:53.08 bitrate=N/A speed=  16x    frame= 4362 fps=384 q=-0.0 size=N/A time=00:03:01.93 bitrate=N/A speed=  16x    frame= 4522 fps=381 q=-0.0 size=N/A time=00:03:08.60 bitrate=N/A speed=15.9x    frame= 4671 fps=377 q=-0.0 size=N/A time=00:03:14.81 bitrate=N/A speed=15.7x    frame= 4872 fps=377 q=-0.0 size=N/A time=00:03:23.20 bitrate=N/A speed=15.7x    frame= 5114 fps=381 q=-0.0 size=N/A time=00:03:33.29 bitrate=N/A speed=15.9x    frame= 5331 fps=382 q=-0.0 size=N/A time=00:03:42.34 bitrate=N/A speed=15.9x    frame= 5491 fps=380 q=-0.0 size=N/A time=00:03:49.02 bitrate=N/A speed=15.8x    frame= 5717 fps=382 q=-0.0 size=N/A time=00:03:58.44 bitrate=N/A speed=15.9x    frame= 5910 fps=382 q=-0.0 size=N/A time=00:04:06.49 bitrate=N/A speed=15.9x    frame= 6109 fps=381 q=-0.0 size=N/A time=00:04:14.79 bitrate=N/A speed=15.9x    frame= 6332 fps=383 q=-0.0 size=N/A time=00:04:24.13 bitrate=N/A speed=  16x    frame= 6564 fps=385 q=-0.0 size=N/A time=00:04:33.77 bitrate=N/A speed=16.1x    frame= 6796 fps=387 q=-0.0 size=N/A time=00:04:43.44 bitrate=N/A speed=16.1x    frame= 7000 fps=387 q=-0.0 size=N/A time=00:04:51.95 bitrate=N/A speed=16.2x    frame= 7241 fps=389 q=-0.0 size=N/A time=00:05:02.01 bitrate=N/A speed=16.2x    frame= 7428 fps=389 q=-0.0 size=N/A time=00:05:09.80 bitrate=N/A speed=16.2x    frame= 7624 fps=389 q=-0.0 size=N/A time=00:05:17.98 bitrate=N/A speed=16.2x    frame= 7829 fps=389 q=-0.0 size=N/A time=00:05:26.53 bitrate=N/A speed=16.2x    frame= 8048 fps=390 q=-0.0 size=N/A time=00:05:35.66 bitrate=N/A speed=16.3x    frame= 8218 fps=388 q=-0.0 size=N/A time=00:05:42.75 bitrate=N/A speed=16.2x    frame= 8461 fps=390 q=-0.0 size=N/A time=00:05:52.89 bitrate=N/A speed=16.3x    frame= 8663 fps=390 q=-0.0 size=N/A time=00:06:01.31 bitrate=N/A speed=16.3x    frame= 8867 fps=390 q=-0.0 size=N/A time=00:06:09.82 bitrate=N/A speed=16.3x    frame= 9025 fps=389 q=-0.0 size=N/A time=00:06:16.41 bitrate=N/A speed=16.2x    frame= 9191 fps=387 q=-0.0 size=N/A time=00:06:23.34 bitrate=N/A speed=16.1x    frame= 9397 fps=388 q=-0.0 size=N/A time=00:06:31.93 bitrate=N/A speed=16.2x    frame= 9622 fps=388 q=-0.0 size=N/A time=00:06:41.31 bitrate=N/A speed=16.2x    frame= 9864 fps=390 q=-0.0 size=N/A time=00:06:51.41 bitrate=N/A speed=16.3x    frame=10125 fps=392 q=-0.0 size=N/A time=00:07:02.29 bitrate=N/A speed=16.4x    frame=10351 fps=393 q=-0.0 size=N/A time=00:07:11.72 bitrate=N/A speed=16.4x    frame=10525 fps=392 q=-0.0 size=N/A time=00:07:18.98 bitrate=N/A speed=16.4x    frame=10774 fps=394 q=-0.0 size=N/A time=00:07:29.36 bitrate=N/A speed=16.4x    frame=11010 fps=395 q=-0.0 size=N/A time=00:07:39.20 bitrate=N/A speed=16.5x    frame=11260 fps=397 q=-0.0 size=N/A time=00:07:49.63 bitrate=N/A speed=16.6x    frame=11472 fps=397 q=-0.0 size=N/A time=00:07:58.47 bitrate=N/A speed=16.6x    frame=11741 fps=399 q=-0.0 size=N/A time=00:08:09.69 bitrate=N/A speed=16.6x    frame=11998 fps=401 q=-0.0 size=N/A time=00:08:20.41 bitrate=N/A speed=16.7x    frame=12243 fps=402 q=-0.0 size=N/A time=00:08:30.63 bitrate=N/A speed=16.8x    frame=12499 fps=404 q=-0.0 size=N/A time=00:08:41.31 bitrate=N/A speed=16.8x    frame=12718 fps=404 q=-0.0 size=N/A time=00:08:50.44 bitrate=N/A speed=16.8x    frame=12981 fps=406 q=-0.0 size=N/A time=00:09:01.41 bitrate=N/A speed=16.9x    frame=13227 fps=407 q=-0.0 size=N/A time=00:09:11.67 bitrate=N/A speed=  17x    frame=13468 fps=408 q=-0.0 size=N/A time=00:09:21.72 bitrate=N/A speed=  17x    frame=13739 fps=409 q=-0.0 size=N/A time=00:09:33.03 bitrate=N/A speed=17.1x    frame=13962 fps=410 q=-0.0 size=N/A time=00:09:42.33 bitrate=N/A speed=17.1x    frame=14227 fps=411 q=-0.0 size=N/A time=00:09:53.38 bitrate=N/A speed=17.2x    frame=14469 fps=412 q=-0.0 size=N/A time=00:10:03.47 bitrate=N/A speed=17.2x    frame=14719 fps=413 q=-0.0 size=N/A time=00:10:13.90 bitrate=N/A speed=17.2x    frame=14971 fps=414 q=-0.0 size=N/A time=00:10:24.41 bitrate=N/A speed=17.3x    frame=15210 fps=415 q=-0.0 size=N/A time=00:10:34.38 bitrate=N/A speed=17.3x    frame=15480 fps=416 q=-0.0 size=N/A time=00:10:45.64 bitrate=N/A speed=17.4x    frame=15741 fps=418 q=-0.0 size=N/A time=00:10:56.53 bitrate=N/A speed=17.4x    frame=15977 fps=418 q=-0.0 size=N/A time=00:11:06.37 bitrate=N/A speed=17.4x    frame=16226 fps=419 q=-0.0 size=N/A time=00:11:16.75 bitrate=N/A speed=17.5x    frame=16449 fps=419 q=-0.0 size=N/A time=00:11:26.06 bitrate=N/A speed=17.5x    frame=16695 fps=420 q=-0.0 size=N/A time=00:11:36.32 bitrate=N/A speed=17.5x    frame=16960 fps=421 q=-0.0 size=N/A time=00:11:47.37 bitrate=N/A speed=17.6x    frame=17219 fps=422 q=-0.0 size=N/A time=00:11:58.17 bitrate=N/A speed=17.6x    frame=17491 fps=423 q=-0.0 size=N/A time=00:12:09.52 bitrate=N/A speed=17.7x    frame=17738 fps=424 q=-0.0 size=N/A time=00:12:19.82 bitrate=N/A speed=17.7x    frame=17981 fps=425 q=-0.0 size=N/A time=00:12:29.95 bitrate=N/A speed=17.7x    frame=18221 fps=425 q=-0.0 size=N/A time=00:12:39.96 bitrate=N/A speed=17.7x    frame=18450 fps=426 q=-0.0 size=N/A time=00:12:49.51 bitrate=N/A speed=17.7x    frame=18644 fps=425 q=-0.0 size=N/A time=00:12:57.61 bitrate=N/A speed=17.7x    frame=18877 fps=425 q=-0.0 size=N/A time=00:13:07.32 bitrate=N/A speed=17.7x    frame=19094 fps=425 q=-0.0 size=N/A time=00:13:16.37 bitrate=N/A speed=17.7x    frame=19340 fps=426 q=-0.0 size=N/A time=00:13:26.63 bitrate=N/A speed=17.8x    frame=19599 fps=427 q=-0.0 size=N/A time=00:13:37.44 bitrate=N/A speed=17.8x    frame=19816 fps=427 q=-0.0 size=N/A time=00:13:46.49 bitrate=N/A speed=17.8x    frame=20065 fps=427 q=-0.0 size=N/A time=00:13:56.87 bitrate=N/A speed=17.8x    frame=20312 fps=428 q=-0.0 size=N/A time=00:14:07.17 bitrate=N/A speed=17.8x    frame=20571 fps=428 q=-0.0 size=N/A time=00:14:17.98 bitrate=N/A speed=17.9x    frame=20841 fps=429 q=-0.0 size=N/A time=00:14:29.24 bitrate=N/A speed=17.9x    frame=21082 fps=430 q=-0.0 size=N/A time=00:14:39.29 bitrate=N/A speed=17.9x    frame=21315 fps=430 q=-0.0 size=N/A time=00:14:49.01 bitrate=N/A speed=17.9x    frame=21538 fps=430 q=-0.0 size=N/A time=00:14:58.31 bitrate=N/A speed=17.9x    frame=21768 fps=430 q=-0.0 size=N/A time=00:15:07.90 bitrate=N/A speed=  18x    frame=21968 fps=430 q=-0.0 size=N/A time=00:15:16.24 bitrate=N/A speed=17.9x    frame=22178 fps=430 q=-0.0 size=N/A time=00:15:25.00 bitrate=N/A speed=17.9x    frame=22408 fps=430 q=-0.0 size=N/A time=00:15:34.60 bitrate=N/A speed=17.9x    frame=22647 fps=430 q=-0.0 size=N/A time=00:15:44.56 bitrate=N/A speed=17.9x    frame=22877 fps=430 q=-0.0 size=N/A time=00:15:54.16 bitrate=N/A speed=  18x    frame=23105 fps=430 q=-0.0 size=N/A time=00:16:03.67 bitrate=N/A speed=  18x    frame=23359 fps=431 q=-0.0 size=N/A time=00:16:14.26 bitrate=N/A speed=  18x    frame=23609 fps=431 q=-0.0 size=N/A time=00:16:24.69 bitrate=N/A speed=  18x    frame=23861 fps=432 q=-0.0 size=N/A time=00:16:35.20 bitrate=N/A speed=  18x    frame=24098 fps=432 q=-0.0 size=N/A time=00:16:45.08 bitrate=N/A speed=  18x    frame=24343 fps=433 q=-0.0 size=N/A time=00:16:55.30 bitrate=N/A speed=  18x    frame=24564 fps=433 q=-0.0 size=N/A time=00:17:04.52 bitrate=N/A speed=  18x    frame=24824 fps=433 q=-0.0 size=N/A time=00:17:15.36 bitrate=N/A speed=18.1x    frame=25068 fps=434 q=-0.0 size=N/A time=00:17:25.54 bitrate=N/A speed=18.1x    frame=25330 fps=434 q=-0.0 size=N/A time=00:17:36.47 bitrate=N/A speed=18.1x    frame=25549 fps=434 q=-0.0 size=N/A time=00:17:45.60 bitrate=N/A speed=18.1x    frame=25749 fps=434 q=-0.0 size=N/A time=00:17:53.94 bitrate=N/A speed=18.1x    frame=25935 fps=433 q=-0.0 size=N/A time=00:18:01.70 bitrate=N/A speed=18.1x    frame=26162 fps=433 q=-0.0 size=N/A time=00:18:11.17 bitrate=N/A speed=18.1x    frame=26423 fps=434 q=-0.0 size=N/A time=00:18:22.05 bitrate=N/A speed=18.1x    frame=26672 fps=434 q=-0.0 size=N/A time=00:18:32.44 bitrate=N/A speed=18.1x    frame=26906 fps=434 q=-0.0 size=N/A time=00:18:42.20 bitrate=N/A speed=18.1x    frame=27167 fps=435 q=-0.0 size=N/A time=00:18:53.09 bitrate=N/A speed=18.1x    frame=27424 fps=435 q=-0.0 size=N/A time=00:19:03.80 bitrate=N/A speed=18.2x    frame=27680 fps=436 q=-0.0 size=N/A time=00:19:14.48 bitrate=N/A speed=18.2x    frame=27929 fps=436 q=-0.0 size=N/A time=00:19:24.87 bitrate=N/A speed=18.2x    frame=28178 fps=437 q=-0.0 size=N/A time=00:19:35.25 bitrate=N/A speed=18.2x    frame=28441 fps=437 q=-0.0 size=N/A time=00:19:46.22 bitrate=N/A speed=18.2x    frame=28699 fps=438 q=-0.0 size=N/A time=00:19:56.98 bitrate=N/A speed=18.3x    frame=28939 fps=438 q=-0.0 size=N/A time=00:20:06.99 bitrate=N/A speed=18.3x    frame=29195 fps=438 q=-0.0 size=N/A time=00:20:17.67 bitrate=N/A speed=18.3x    frame=29380 fps=438 q=-0.0 size=N/A time=00:20:25.39 bitrate=N/A speed=18.3x    frame=29606 fps=438 q=-0.0 size=N/A time=00:20:34.81 bitrate=N/A speed=18.3x    frame=29828 fps=438 q=-0.0 size=N/A time=00:20:44.07 bitrate=N/A speed=18.3x    frame=30019 fps=437 q=-0.0 size=N/A time=00:20:52.04 bitrate=N/A speed=18.2x    frame=30237 fps=437 q=-0.0 size=N/A time=00:21:01.13 bitrate=N/A speed=18.2x    frame=30506 fps=438 q=-0.0 size=N/A time=00:21:12.35 bitrate=N/A speed=18.3x    frame=30721 fps=438 q=-0.0 size=N/A time=00:21:21.32 bitrate=N/A speed=18.3x    frame=30951 fps=438 q=-0.0 size=N/A time=00:21:30.91 bitrate=N/A speed=18.3x    frame=31200 fps=438 q=-0.0 size=N/A time=00:21:41.30 bitrate=N/A speed=18.3x    frame=31439 fps=438 q=-0.0 size=N/A time=00:21:51.26 bitrate=N/A speed=18.3x    frame=31699 fps=439 q=-0.0 size=N/A time=00:22:02.11 bitrate=N/A speed=18.3x    frame=31932 fps=439 q=-0.0 size=N/A time=00:22:11.83 bitrate=N/A speed=18.3x    frame=32133 fps=438 q=-0.0 size=N/A time=00:22:20.21 bitrate=N/A speed=18.3x    frame=32347 fps=438 q=-0.0 size=N/A time=00:22:29.13 bitrate=N/A speed=18.3x    frame=32558 fps=438 q=-0.0 size=N/A time=00:22:37.93 bitrate=N/A speed=18.3x    frame=32770 fps=438 q=-0.0 size=N/A time=00:22:46.78 bitrate=N/A speed=18.3x    frame=32966 fps=438 q=-0.0 size=N/A time=00:22:54.95 bitrate=N/A speed=18.2x    frame=33141 fps=437 q=-0.0 size=N/A time=00:23:02.25 bitrate=N/A speed=18.2x    frame=33305 fps=436 q=-0.0 size=N/A time=00:23:09.09 bitrate=N/A speed=18.2x    frame=33508 fps=436 q=-0.0 size=N/A time=00:23:17.56 bitrate=N/A speed=18.2x    frame=33758 fps=436 q=-0.0 size=N/A time=00:23:27.98 bitrate=N/A speed=18.2x    frame=33995 fps=436 q=-0.0 size=N/A time=00:23:37.87 bitrate=N/A speed=18.2x    frame=34242 fps=437 q=-0.0 size=N/A time=00:23:48.17 bitrate=N/A speed=18.2x    [Parsed_psnr_10 @ 0000022f167fa480] PSNR y:48.853447 u:51.280206 v:50.477084 average:49.425118 min:38.485924 max:inf
[out#0/null @ 0000022f16764ac0] video:14722KiB audio:267956KiB subtitle:0KiB other streams:0KiB global headers:0KiB muxing overhead: unknown
frame=34261 fps=437 q=-0.0 Lsize=N/A time=00:23:48.96 bitrate=N/A speed=18.2x    
